<svg width="40" height="42" viewBox="0 0 40 42" fill="none" xmlns="http://www.w3.org/2000/svg">
<mask id="mask0_1505_511" style="mask-type:luminance" maskUnits="userSpaceOnUse" x="0" y="0" width="40" height="42">
<path d="M0.5 0.5H38.7V40.7H0.5V0.5Z" fill="white" stroke="white"/>
</mask>
<g mask="url(#mask0_1505_511)">
<path d="M19.6024 40.7001L19.6033 40.7001H23.8444V33.4279C23.7662 33.419 23.6881 33.4094 23.6109 33.3992C23.2287 33.3614 22.8482 33.3062 22.4752 33.2391C22.2612 33.2076 22.0529 33.17 21.8445 33.1261L21.8362 33.1244L21.8362 33.1243C21.7765 33.1106 21.7162 33.0983 21.6493 33.0846L21.647 33.0841C21.5849 33.0714 21.5171 33.0575 21.4481 33.0418C21.1905 32.9912 20.936 32.9287 20.6876 32.8624C19.8754 32.6597 19.075 32.4087 18.29 32.1108L19.6024 40.7001ZM19.6024 40.7001C18.0452 40.7031 16.4935 40.5022 14.9831 40.1019L14.9826 40.1018C11.5624 39.1996 8.44282 37.3205 5.96994 34.6686C3.49682 32.0165 1.7671 28.695 0.974768 25.0698L0.963504 25.0183L0.960703 25.0121C0.960137 25.01 0.959539 25.0079 0.958905 25.0056C0.389011 22.341 0.342127 19.5818 0.821247 16.8972C1.20078 14.7706 1.90391 12.7269 2.89984 10.8437M19.6024 40.7001L2.89984 10.8437M2.89984 10.8437C2.90308 10.8811 2.90728 10.9184 2.91243 10.9555C2.91777 11.058 2.92429 11.1634 2.93633 11.2768C2.94151 11.331 2.94661 11.3863 2.95179 11.4424C2.97038 11.6436 2.98993 11.8553 3.01747 12.0691C3.0527 12.39 3.09944 12.7153 3.15131 13.0317C3.19315 13.3241 3.24599 13.6151 3.29754 13.8958L3.29749 13.8958L3.29887 13.9028C3.34987 14.1598 3.40251 14.4196 3.46737 14.6872C3.49739 14.8309 3.53247 14.9787 3.56748 15.1178C3.66352 15.5183 3.77178 15.9176 3.88883 16.3098C3.88874 16.3095 3.88865 16.3092 3.88857 16.3089L2.89984 10.8437ZM4.06973 16.902C4.24539 17.4557 4.44423 18.002 4.65974 18.5401C4.76261 18.8069 4.87712 19.0662 4.98598 19.3127L4.99947 19.3432L4.99954 19.3433C5.2764 19.9698 5.57982 20.5833 5.90006 21.1775C6.02373 21.413 6.15375 21.6427 6.29003 21.8664C6.29231 21.8705 6.29482 21.8749 6.29755 21.8795C6.30073 21.8849 6.30418 21.8905 6.30794 21.8964C6.43982 22.126 6.57349 22.3446 6.71745 22.5676C6.90104 22.8579 7.08882 23.1481 7.28999 23.434C7.6611 23.9744 8.05296 24.4906 8.47368 24.9947C8.66272 25.2332 8.85563 25.4577 9.0562 25.6837C9.0785 25.7139 9.10384 25.7419 9.13192 25.7674C9.33722 26.0059 9.55464 26.2374 9.76737 26.4576C10.2135 26.9264 10.6768 27.3693 11.1559 27.7935L11.1579 27.7952C11.6407 28.2181 12.1369 28.625 12.6517 29.0089C12.6568 29.0133 12.6624 29.018 12.6685 29.0229L12.6695 29.0237C12.673 29.0265 12.6787 29.0311 12.6864 29.0368C13.2773 29.5741 13.9239 30.0408 14.6142 30.4283L15.3589 30.8463L4.06973 16.902Z" fill="#2BC37C" stroke="#F3F3F5"/>
<path d="M23.8444 22.8631V32.4236C20.8673 32.0966 17.9817 31.1401 15.3616 29.6096V22.8631H15.3616L15.3616 22.858C15.3555 22.2617 15.4619 21.6706 15.6743 21.1192L15.6743 21.1192C15.8867 20.5677 16.2004 20.0676 16.5962 19.6471C16.9919 19.2267 17.4616 18.8944 17.9775 18.6681C18.4932 18.4418 19.0457 18.3257 19.603 18.3257C20.1603 18.3257 20.7127 18.4418 21.2285 18.6681C21.7444 18.8944 22.2141 19.2267 22.6098 19.6471C23.0056 20.0676 23.3193 20.5677 23.5317 21.1192L23.5317 21.1192C23.7441 21.6706 23.8506 22.2617 23.8444 22.8579L23.8444 22.8579V22.8631Z" fill="#3544B1" stroke="#F3F3F5"/>
<mask id="mask1_1505_511" style="mask-type:alpha" maskUnits="userSpaceOnUse" x="15" y="18" width="9" height="8">
<path fill-rule="evenodd" clip-rule="evenodd" d="M19.6002 25.7587C21.9792 25.7587 23.9079 24.1602 23.9079 22.1884C23.9079 20.2166 21.9792 18.6182 19.6002 18.6182C17.2211 18.6182 15.2925 20.2166 15.2925 22.1884C15.2925 24.1602 17.2211 25.7587 19.6002 25.7587Z" fill="white"/>
</mask>
<g mask="url(#mask1_1505_511)">
<g filter="url(#filter0_i_1505_511)">
<path d="M15.6622 22.6448L16.5975 22.9293C16.6046 22.9367 16.6123 22.9443 16.6206 22.9519C16.6374 22.9673 16.7018 23.0263 16.8053 23.0603C16.8635 23.0794 16.9543 23.0972 17.062 23.0753C17.1768 23.0519 17.2706 22.9914 17.3366 22.9172L15.6622 22.6448ZM15.6622 22.6448L15.6317 22.8486L15.6622 22.6448Z" fill="#F5C1BC" stroke="#1B264F"/>
</g>
<path d="M15.2227 21.9967L16.9525 22.5001L18.1827 21.0605L19.4371 23.5049L20.6163 21.5794L22.0172 23.1037L24.0604 22.259" stroke="#1B264F" stroke-width="1.5"/>
<path d="M16.9073 22.7494C17.1187 22.7494 17.2901 22.6073 17.2901 22.4321C17.2901 22.2568 17.1187 22.1147 16.9073 22.1147C16.6958 22.1147 16.5244 22.2568 16.5244 22.4321C16.5244 22.6073 16.6958 22.7494 16.9073 22.7494Z" fill="#4C4B53" stroke="#1B264F" stroke-width="2"/>
<path d="M18.148 21.389C18.3594 21.389 18.5309 21.247 18.5309 21.0717C18.5309 20.8965 18.3594 20.7544 18.148 20.7544C17.9366 20.7544 17.7651 20.8965 17.7651 21.0717C17.7651 21.247 17.9366 21.389 18.148 21.389Z" fill="#4C4B53" stroke="#1B264F" stroke-width="2"/>
<path d="M19.4727 23.7826C19.6842 23.7826 19.8556 23.6405 19.8556 23.4653C19.8556 23.29 19.6842 23.1479 19.4727 23.1479C19.2613 23.1479 19.0898 23.29 19.0898 23.4653C19.0898 23.6405 19.2613 23.7826 19.4727 23.7826Z" fill="#4C4B53" stroke="#1B264F" stroke-width="2"/>
<path d="M20.7193 21.9071C20.9307 21.9071 21.1021 21.765 21.1021 21.5898C21.1021 21.4145 20.9307 21.2725 20.7193 21.2725C20.5078 21.2725 20.3364 21.4145 20.3364 21.5898C20.3364 21.765 20.5078 21.9071 20.7193 21.9071Z" fill="#4C4B53" stroke="#1B264F" stroke-width="2"/>
<path d="M22.2037 23.2631C22.4151 23.2631 22.5865 23.121 22.5865 22.9457C22.5865 22.7705 22.4151 22.6284 22.2037 22.6284C21.9922 22.6284 21.8208 22.7705 21.8208 22.9457C21.8208 23.121 21.9922 23.2631 22.2037 23.2631Z" fill="#4C4B53" stroke="#1B264F" stroke-width="2"/>
</g>
<path d="M8.98369 20.5967V20.5969C8.98341 22.1592 9.29734 23.7043 9.90534 25.1312C9.26531 24.4154 8.66686 23.6575 8.1138 22.8614C5.37283 18.9069 3.87791 14.1477 3.84006 9.25251C4.92336 7.5969 6.23285 6.11909 7.72589 4.8667C11.5446 1.66839 16.3801 0.134321 21.2367 0.573856C25.5391 0.963239 29.5751 2.876 32.6961 5.97718C29.7522 5.30204 26.7 5.28581 23.7401 5.93642C20.3702 6.67712 17.2227 8.25961 14.5628 10.5467L14.5589 10.5472L14.4433 10.647C14.1671 10.8854 13.8973 11.1334 13.6377 11.387C13.6274 11.3951 13.6171 11.4037 13.6069 11.413C11.9168 12.6274 10.5979 14.325 9.80484 16.3011L9.80452 16.3019C9.53446 16.9782 9.32795 17.6801 9.18765 18.398L9.18763 18.398L9.18683 18.4023C9.0521 19.1253 8.98409 19.8601 8.98369 20.5967Z" fill="#3544B1" stroke="#F3F3F5"/>
<path d="M30.2243 30.7279V22.1425C30.2294 22.1517 30.2344 22.1608 30.2395 22.17C30.2806 22.2511 30.3299 22.348 30.3874 22.4433C30.5056 22.6789 30.6344 22.9059 30.7729 23.1307C30.9173 23.3853 31.067 23.6336 31.2211 23.8796C31.2421 23.9161 31.265 23.9517 31.2898 23.986C31.4304 24.2192 31.5808 24.4437 31.7267 24.6556C31.7633 24.7114 31.8042 24.771 31.8437 24.8279C31.9619 25.0024 32.0855 25.1753 32.2049 25.3422L32.2048 25.3422L32.2102 25.3494C32.2305 25.3767 32.2533 25.4082 32.2779 25.442C32.334 25.519 32.3988 25.6082 32.4619 25.688C32.4762 25.7072 32.4907 25.7266 32.5053 25.7461C32.5923 25.8627 32.6828 25.984 32.7737 26.1004L32.7739 26.1007C32.9089 26.2735 33.0485 26.4461 33.1823 26.6117C33.2104 26.6465 33.2383 26.681 33.2658 26.7152L33.271 26.7217L33.2765 26.728C33.3158 26.7734 33.3554 26.8195 33.3953 26.8659C33.5552 27.0516 33.7203 27.2434 33.8887 27.43C34.0813 27.6518 34.2796 27.8667 34.4898 28.0808C34.4903 28.0815 34.491 28.0823 34.4918 28.0832L34.5057 28.0996L34.507 28.1011C34.5175 28.1136 34.5376 28.1374 34.5599 28.1609L34.5598 28.1609L34.5668 28.1679C34.7092 28.3118 34.8553 28.4588 35.0016 28.6009C35.7636 29.3616 36.5721 30.0695 37.422 30.7201L37.4227 30.7207C37.7552 30.9742 38.0993 31.228 38.4579 31.4667C38.5374 31.5262 38.6207 31.584 38.7005 31.6384V40.1796C36.8195 40.0696 35.0118 39.3375 33.5395 38.0768C31.9368 36.7044 30.8295 34.7889 30.4103 32.6511C30.2871 32.0183 30.2248 31.374 30.2243 30.7279Z" fill="#D42054" stroke="#F3F3F5"/>
<mask id="path-14-inside-1_1505_511" fill="white">
<path d="M39.2 31.3719V20.597C39.1991 15.8003 37.603 11.1547 34.6878 7.46396C34.5446 7.27743 34.3953 7.09031 34.2405 6.90958C34.1499 6.87774 34.0576 6.85153 33.964 6.83114C33.9511 6.81992 33.9349 6.81359 33.9181 6.81312H33.9071C33.6948 6.74687 33.477 6.68644 33.2591 6.626C33.2249 6.62019 33.1845 6.60799 33.1441 6.59637C32.9379 6.54174 32.7255 6.49351 32.5138 6.44528C32.2097 6.37322 31.9056 6.31279 31.596 6.25874C31.4301 6.22853 31.2642 6.2047 31.0984 6.17448C30.8977 6.14427 30.6914 6.12044 30.4852 6.09603C30.2955 6.07163 30.1065 6.05361 29.9174 6.03792C29.8201 6.03211 29.7222 6.01991 29.6194 6.0141C29.1262 5.97807 28.6274 5.95947 28.1265 5.95947C27.9999 5.95947 27.8738 5.95947 27.7539 5.96586C27.6433 5.96586 27.5416 5.97168 27.4326 5.97807C27.3733 5.97383 27.3136 5.97574 27.2546 5.98388C27.1744 5.98388 27.0943 5.98969 27.0141 5.99608C26.8018 6.00189 26.59 6.01991 26.3777 6.03792C26.2915 6.04431 26.2058 6.05013 26.1195 6.06233C25.8502 6.08615 25.5865 6.11637 25.3167 6.15879C25.1508 6.18262 24.9789 6.20702 24.8124 6.23666C24.781 6.23689 24.7499 6.24323 24.7207 6.25526C24.5946 6.27327 24.4625 6.2971 24.3337 6.3215C23.8466 6.41158 23.3589 6.52605 22.8834 6.65855C22.7396 6.69516 22.5964 6.737 22.4588 6.77942C21.6862 7.0082 20.9263 7.28173 20.1825 7.59878C19.9708 7.68943 19.764 7.7859 19.5577 7.88933C19.0988 8.10028 18.6515 8.33504 18.2103 8.58666C18.0268 8.68313 17.8492 8.79121 17.6712 8.89988C17.1609 9.20729 16.6622 9.5391 16.1784 9.89416C15.9374 10.0749 15.6968 10.2556 15.4596 10.4427C15.2357 10.6234 15.0124 10.81 14.7962 10.9971C14.79 11.0066 14.7821 11.0147 14.7729 11.0209C14.7099 11.0692 14.6529 11.1238 14.5899 11.1778C14.3687 11.3708 14.1537 11.5753 13.9419 11.7804C15.6102 10.5918 17.5799 9.95773 19.5953 9.9604H19.6009C20.9281 9.9604 22.2422 10.2356 23.4681 10.7701C24.694 11.3047 25.8075 12.0882 26.7448 13.0757C28.48 14.8977 29.5271 17.3195 29.6918 19.8915C29.7664 20.0659 29.8411 20.2402 29.9268 20.4145C29.9328 20.4267 29.9384 20.4326 29.9384 20.4448C30.0589 20.7039 30.1789 20.9631 30.3055 21.2159C30.3166 21.2403 30.3282 21.2583 30.3398 21.2821C30.4426 21.4995 30.5576 21.7162 30.6715 21.933C30.7174 22.0236 30.7633 22.1137 30.8153 22.198C30.9352 22.4304 31.0613 22.6501 31.1935 22.8732C31.3367 23.126 31.486 23.3735 31.6408 23.6205C31.6572 23.65 31.6757 23.6782 31.696 23.7048C31.8332 23.9279 31.977 24.1505 32.1318 24.3736C32.1661 24.4277 32.2058 24.4823 32.2462 24.5422C32.3606 24.7113 32.4812 24.8798 32.6017 25.0483C32.6819 25.157 32.762 25.2714 32.8483 25.3801C32.9456 25.5184 33.049 25.6573 33.1579 25.7898C33.3182 25.9949 33.4847 26.1966 33.6451 26.3982C33.8458 26.6307 34.0464 26.8683 34.2532 27.0955C34.4423 27.3129 34.6369 27.5238 34.8437 27.7348C34.8664 27.7592 34.8896 27.7894 34.9123 27.8132C35.0555 27.9579 35.1992 28.1038 35.3424 28.2415C36.0898 28.9878 36.8827 29.6822 37.716 30.3201C38.0477 30.5793 38.3867 30.8263 38.7367 31.0616C38.8799 31.1639 39.0291 31.2662 39.179 31.3626H39.1851C39.1839 31.3647 39.1836 31.3672 39.1841 31.3695C39.1847 31.3719 39.1861 31.3739 39.1881 31.3751C39.1901 31.3763 39.1925 31.3767 39.1947 31.3761C39.1969 31.3755 39.1988 31.374 39.2 31.3719Z"/>
</mask>
<path d="M39.2 31.3719V20.597C39.1991 15.8003 37.603 11.1547 34.6878 7.46396C34.5446 7.27743 34.3953 7.09031 34.2405 6.90958C34.1499 6.87774 34.0576 6.85153 33.964 6.83114C33.9511 6.81992 33.9349 6.81359 33.9181 6.81312H33.9071C33.6948 6.74687 33.477 6.68644 33.2591 6.626C33.2249 6.62019 33.1845 6.60799 33.1441 6.59637C32.9379 6.54174 32.7255 6.49351 32.5138 6.44528C32.2097 6.37322 31.9056 6.31279 31.596 6.25874C31.4301 6.22853 31.2642 6.2047 31.0984 6.17448C30.8977 6.14427 30.6914 6.12044 30.4852 6.09603C30.2955 6.07163 30.1065 6.05361 29.9174 6.03792C29.8201 6.03211 29.7222 6.01991 29.6194 6.0141C29.1262 5.97807 28.6274 5.95947 28.1265 5.95947C27.9999 5.95947 27.8738 5.95947 27.7539 5.96586C27.6433 5.96586 27.5416 5.97168 27.4326 5.97807C27.3733 5.97383 27.3136 5.97574 27.2546 5.98388C27.1744 5.98388 27.0943 5.98969 27.0141 5.99608C26.8018 6.00189 26.59 6.01991 26.3777 6.03792C26.2915 6.04431 26.2058 6.05013 26.1195 6.06233C25.8502 6.08615 25.5865 6.11637 25.3167 6.15879C25.1508 6.18262 24.9789 6.20702 24.8124 6.23666C24.781 6.23689 24.7499 6.24323 24.7207 6.25526C24.5946 6.27327 24.4625 6.2971 24.3337 6.3215C23.8466 6.41158 23.3589 6.52605 22.8834 6.65855C22.7396 6.69516 22.5964 6.737 22.4588 6.77942C21.6862 7.0082 20.9263 7.28173 20.1825 7.59878C19.9708 7.68943 19.764 7.7859 19.5577 7.88933C19.0988 8.10028 18.6515 8.33504 18.2103 8.58666C18.0268 8.68313 17.8492 8.79121 17.6712 8.89988C17.1609 9.20729 16.6622 9.5391 16.1784 9.89416C15.9374 10.0749 15.6968 10.2556 15.4596 10.4427C15.2357 10.6234 15.0124 10.81 14.7962 10.9971C14.79 11.0066 14.7821 11.0147 14.7729 11.0209C14.7099 11.0692 14.6529 11.1238 14.5899 11.1778C14.3687 11.3708 14.1537 11.5753 13.9419 11.7804C15.6102 10.5918 17.5799 9.95773 19.5953 9.9604H19.6009C20.9281 9.9604 22.2422 10.2356 23.4681 10.7701C24.694 11.3047 25.8075 12.0882 26.7448 13.0757C28.48 14.8977 29.5271 17.3195 29.6918 19.8915C29.7664 20.0659 29.8411 20.2402 29.9268 20.4145C29.9328 20.4267 29.9384 20.4326 29.9384 20.4448C30.0589 20.7039 30.1789 20.9631 30.3055 21.2159C30.3166 21.2403 30.3282 21.2583 30.3398 21.2821C30.4426 21.4995 30.5576 21.7162 30.6715 21.933C30.7174 22.0236 30.7633 22.1137 30.8153 22.198C30.9352 22.4304 31.0613 22.6501 31.1935 22.8732C31.3367 23.126 31.486 23.3735 31.6408 23.6205C31.6572 23.65 31.6757 23.6782 31.696 23.7048C31.8332 23.9279 31.977 24.1505 32.1318 24.3736C32.1661 24.4277 32.2058 24.4823 32.2462 24.5422C32.3606 24.7113 32.4812 24.8798 32.6017 25.0483C32.6819 25.157 32.762 25.2714 32.8483 25.3801C32.9456 25.5184 33.049 25.6573 33.1579 25.7898C33.3182 25.9949 33.4847 26.1966 33.6451 26.3982C33.8458 26.6307 34.0464 26.8683 34.2532 27.0955C34.4423 27.3129 34.6369 27.5238 34.8437 27.7348C34.8664 27.7592 34.8896 27.7894 34.9123 27.8132C35.0555 27.9579 35.1992 28.1038 35.3424 28.2415C36.0898 28.9878 36.8827 29.6822 37.716 30.3201C38.0477 30.5793 38.3867 30.8263 38.7367 31.0616C38.8799 31.1639 39.0291 31.2662 39.179 31.3626H39.1851C39.1839 31.3647 39.1836 31.3672 39.1841 31.3695C39.1847 31.3719 39.1861 31.3739 39.1881 31.3751C39.1901 31.3763 39.1925 31.3767 39.1947 31.3761C39.1969 31.3755 39.1988 31.374 39.2 31.3719Z" fill="#FF9412"/>
<path d="M39.2 31.3719L40.0645 31.8746L40.2 31.6415V31.3719H39.2ZM39.2 20.597L40.2 20.597L40.2 20.5968L39.2 20.597ZM34.6878 7.46396L33.8945 8.07296L33.9031 8.08379L34.6878 7.46396ZM34.2405 6.90958L34.9999 6.25902L34.8254 6.05522L34.5722 5.96621L34.2405 6.90958ZM33.964 6.83114L33.309 7.58675L33.5018 7.75384L33.751 7.80818L33.964 6.83114ZM33.9181 6.81312L33.9458 5.8135L33.932 5.81312H33.9181V6.81312ZM33.9071 6.81312L33.6093 7.76773L33.7547 7.81312H33.9071V6.81312ZM33.2591 6.626L33.5265 5.6624L33.4769 5.64866L33.4263 5.64007L33.2591 6.626ZM33.1441 6.59637L33.4208 5.63541L33.4105 5.63245L33.4002 5.6297L33.1441 6.59637ZM32.5138 6.44528L32.2832 7.41837L32.2917 7.42031L32.5138 6.44528ZM31.596 6.25874L31.4167 7.24258L31.424 7.24385L31.596 6.25874ZM31.0984 6.17448L31.2776 5.19067L31.2624 5.18792L31.2472 5.18563L31.0984 6.17448ZM30.4852 6.09603L30.3575 7.0879L30.3677 7.0891L30.4852 6.09603ZM29.9174 6.03792L30.0001 5.04135L29.9886 5.04039L29.977 5.0397L29.9174 6.03792ZM29.6194 6.0141L29.5465 7.01144L29.5548 7.01204L29.563 7.0125L29.6194 6.0141ZM27.7539 5.96586V6.96586H27.7805L27.8071 6.96445L27.7539 5.96586ZM27.4326 5.97807L27.3614 6.97553L27.4263 6.98016L27.4912 6.97635L27.4326 5.97807ZM27.2546 5.98388V6.98388H27.3232L27.3911 6.97452L27.2546 5.98388ZM27.0141 5.99608L27.0414 6.99571L27.0675 6.99499L27.0936 6.99292L27.0141 5.99608ZM26.3777 6.03792L26.4516 7.03524L26.4622 7.03434L26.3777 6.03792ZM26.1195 6.06233L26.2076 7.05844L26.2337 7.05613L26.2596 7.05247L26.1195 6.06233ZM25.3167 6.15879L25.4589 7.14872L25.472 7.14666L25.3167 6.15879ZM24.8124 6.23666L24.8198 7.23663L24.9045 7.23601L24.9878 7.22117L24.8124 6.23666ZM24.7207 6.25526L24.8621 7.2452L24.9856 7.22755L25.101 7.1801L24.7207 6.25526ZM24.3337 6.3215L24.5155 7.30484L24.5198 7.30403L24.3337 6.3215ZM22.8834 6.65855L23.1302 7.62761L23.141 7.62485L23.1518 7.62185L22.8834 6.65855ZM22.4588 6.77942L22.7427 7.73832L22.7532 7.73508L22.4588 6.77942ZM20.1825 7.59878L19.7904 6.67887L19.789 6.67947L20.1825 7.59878ZM19.5577 7.88933L19.9754 8.79794L19.9909 8.79083L20.0061 8.7832L19.5577 7.88933ZM18.2103 8.58666L18.6755 9.47188L18.6908 9.46386L18.7057 9.45533L18.2103 8.58666ZM17.6712 8.89988L18.1872 9.75649L18.1922 9.75344L17.6712 8.89988ZM16.1784 9.89416L15.5867 9.08793L15.5786 9.09404L16.1784 9.89416ZM15.4596 10.4427L14.8402 9.65756L14.8316 9.66455L15.4596 10.4427ZM14.7962 10.9971L14.1417 10.241L14.0332 10.335L13.9554 10.4557L14.7962 10.9971ZM14.7729 11.0209L14.212 10.193L14.1881 10.2092L14.1652 10.2268L14.7729 11.0209ZM14.5899 11.1778L13.939 10.4186L13.9325 10.4243L14.5899 11.1778ZM13.9419 11.7804L13.2461 11.0622L14.5222 12.5949L13.9419 11.7804ZM19.5953 9.9604L19.594 10.9604H19.5953V9.9604ZM26.7448 13.0757L26.0195 13.7642L26.0207 13.7654L26.7448 13.0757ZM29.6918 19.8915L28.6938 19.9554L28.7048 20.127L28.7725 20.2851L29.6918 19.8915ZM29.9268 20.4145L29.0293 20.8557L29.0318 20.8606L29.9268 20.4145ZM29.9384 20.4448H28.9384V20.6659L29.0316 20.8665L29.9384 20.4448ZM30.3055 21.2159L31.2164 20.8032L31.2083 20.7855L31.1996 20.768L30.3055 21.2159ZM30.3398 21.2821L31.2437 20.8544L31.2387 20.8441L30.3398 21.2821ZM30.6715 21.933L31.5637 21.4813L31.5603 21.4745L31.5567 21.4678L30.6715 21.933ZM30.8153 22.198L31.7039 21.7393L31.6864 21.7054L31.6664 21.673L30.8153 22.198ZM31.1935 22.8732L32.0635 22.3803L32.0588 22.3719L32.0539 22.3637L31.1935 22.8732ZM31.6408 23.6205L32.5143 23.1337L32.5018 23.1112L32.4881 23.0894L31.6408 23.6205ZM31.696 23.7048L32.548 23.1812L32.5214 23.1379L32.4905 23.0974L31.696 23.7048ZM32.1318 24.3736L32.9762 23.838L32.9652 23.8206L32.9534 23.8036L32.1318 24.3736ZM32.2462 24.5422L31.4171 25.1012L31.418 25.1027L32.2462 24.5422ZM32.6017 25.0483L31.7883 25.63L31.7926 25.636L31.797 25.642L32.6017 25.0483ZM32.8483 25.3801L33.6661 24.8047L33.6495 24.781L33.6315 24.7584L32.8483 25.3801ZM33.1579 25.7898L33.9458 25.174L33.9382 25.1643L33.9304 25.1547L33.1579 25.7898ZM33.6451 26.3982L32.8624 27.0206L32.8749 27.0364L32.8882 27.0517L33.6451 26.3982ZM34.2532 27.0955L35.0076 26.4392L35.0003 26.4307L34.9928 26.4225L34.2532 27.0955ZM34.8437 27.7348L35.5764 27.0542L35.5672 27.0444L35.5578 27.0347L34.8437 27.7348ZM34.9123 27.8132L34.1878 28.5025L34.1946 28.5096L34.2015 28.5166L34.9123 27.8132ZM35.3424 28.2415L36.049 27.5339L36.0424 27.5272L36.0356 27.5207L35.3424 28.2415ZM37.716 30.3201L38.3317 29.5321L38.3239 29.5261L37.716 30.3201ZM38.7367 31.0616L39.3179 30.2478L39.3064 30.2396L39.2947 30.2318L38.7367 31.0616ZM39.179 31.3626L38.6377 32.2034L38.8849 32.3626H39.179V31.3626ZM39.1851 31.3626L40.0594 31.8479L40.8838 30.3626H39.1851V31.3626ZM39.1841 31.3695L38.21 31.5956L38.2113 31.6009L39.1841 31.3695ZM39.1947 31.3761L38.9464 30.4074L38.9406 30.4089L39.1947 31.3761ZM40.2 31.3719V20.597H38.2V31.3719H40.2ZM40.2 20.5968C40.1991 15.58 38.5301 10.7151 35.4726 6.84413L33.9031 8.08379C36.6759 11.5943 38.1991 16.0205 38.2 20.5972L40.2 20.5968ZM35.481 6.85502C35.3304 6.65875 35.1695 6.45699 34.9999 6.25902L33.481 7.56015C33.6211 7.72363 33.7589 7.8961 33.8946 8.0729L35.481 6.85502ZM34.5722 5.96621C34.443 5.92076 34.311 5.88329 34.1771 5.85409L33.751 7.80818C33.8042 7.81977 33.8569 7.83472 33.9088 7.85296L34.5722 5.96621ZM34.619 6.07552C34.4348 5.9158 34.198 5.82048 33.9458 5.8135L33.8905 7.81274C33.6719 7.80669 33.4674 7.72404 33.309 7.58675L34.619 6.07552ZM33.9181 5.81312H33.9071V7.81312H33.9181V5.81312ZM34.205 5.85851C33.9749 5.78671 33.7416 5.72207 33.5265 5.6624L32.9918 7.58961C33.2124 7.65081 33.4148 7.70703 33.6093 7.76773L34.205 5.85851ZM33.4263 5.64007C33.442 5.64274 33.4533 5.64524 33.4584 5.64644C33.4637 5.64767 33.466 5.64832 33.464 5.64777C33.4619 5.64721 33.4579 5.64612 33.4502 5.6439C33.4464 5.64282 33.4424 5.64165 33.4374 5.64019C33.4327 5.63883 33.4268 5.63712 33.4208 5.63541L32.8674 7.55732C32.8766 7.55997 32.9872 7.59418 33.092 7.61194L33.4263 5.64007ZM33.4002 5.6297C33.1739 5.56978 32.9439 5.51764 32.7359 5.47025L32.2917 7.42031C32.5072 7.46939 32.7019 7.51371 32.8881 7.56303L33.4002 5.6297ZM32.7444 5.47222C32.4168 5.39461 32.0926 5.33031 31.7679 5.27364L31.424 7.24385C31.7186 7.29526 32.0026 7.35184 32.2832 7.41833L32.7444 5.47222ZM31.7752 5.27494C31.6815 5.25787 31.5894 5.24289 31.5079 5.22962C31.4235 5.21587 31.3498 5.20383 31.2776 5.19067L30.9191 7.15829C31.0128 7.17535 31.105 7.19034 31.1864 7.2036C31.2708 7.21736 31.3445 7.2294 31.4167 7.24255L31.7752 5.27494ZM31.2472 5.18563C31.0274 5.15252 30.8032 5.12669 30.6027 5.10296L30.3677 7.0891C30.5797 7.11419 30.7679 7.13601 30.9495 7.16334L31.2472 5.18563ZM30.6128 5.10421C30.4022 5.07711 30.1966 5.05765 30.0001 5.04135L29.8347 7.0345C30.0164 7.04957 30.1889 7.06615 30.3575 7.08785L30.6128 5.10421ZM29.977 5.0397C29.9469 5.0379 29.9146 5.03499 29.8611 5.03013C29.8129 5.02574 29.7467 5.01969 29.6758 5.01569L29.563 7.0125C29.595 7.01431 29.6291 7.01727 29.6798 7.02189C29.7253 7.02603 29.7906 7.03213 29.8578 7.03614L29.977 5.0397ZM29.6923 5.01675C29.1752 4.97898 28.6521 4.95947 28.1265 4.95947V6.95947C28.6028 6.95947 29.0772 6.97715 29.5465 7.01144L29.6923 5.01675ZM28.1265 4.95947C28.0053 4.95947 27.852 4.95922 27.7007 4.96728L27.8071 6.96445C27.8957 6.95973 27.9945 6.95947 28.1265 6.95947V4.95947ZM27.7539 4.96586C27.6101 4.96586 27.4808 4.97352 27.374 4.97979L27.4912 6.97635C27.6023 6.96983 27.6765 6.96586 27.7539 6.96586V4.96586ZM27.5039 4.98061C27.3756 4.97144 27.2464 4.97557 27.1181 4.99324L27.3911 6.97452C27.3809 6.97592 27.3709 6.97621 27.3614 6.97553L27.5039 4.98061ZM27.2546 4.98388C27.1306 4.98388 27.015 4.99283 26.9346 4.99925L27.0936 6.99292C27.1735 6.98655 27.2183 6.98388 27.2546 6.98388V4.98388ZM26.9867 4.99646C26.7409 5.00318 26.5005 5.02391 26.2932 5.0415L26.4622 7.03434C26.6796 7.0159 26.8626 7.0006 27.0414 6.99571L26.9867 4.99646ZM26.3038 5.04066C26.2292 5.04619 26.1059 5.05429 25.9794 5.07219L26.2596 7.05247C26.3056 7.04596 26.3537 7.04244 26.4516 7.03519L26.3038 5.04066ZM26.0314 5.06622C25.7451 5.09155 25.4583 5.12425 25.1614 5.17093L25.472 7.14666C25.7147 7.1085 25.9554 7.08076 26.2076 7.05844L26.0314 5.06622ZM25.1745 5.16895C25.0133 5.19211 24.8234 5.21898 24.6371 5.25215L24.9878 7.22117C25.1343 7.19507 25.2883 7.17313 25.4589 7.14863L25.1745 5.16895ZM24.805 5.23669C24.6439 5.23788 24.4863 5.27039 24.3403 5.33042L25.101 7.1801C25.0136 7.21606 24.9182 7.23591 24.8198 7.23663L24.805 5.23669ZM24.5792 5.26531C24.4302 5.28661 24.2802 5.31384 24.1475 5.33898L24.5198 7.30403C24.6448 7.28035 24.759 7.25993 24.8621 7.2452L24.5792 5.26531ZM24.1519 5.33817C23.6335 5.43402 23.1169 5.55538 22.615 5.69524L23.1518 7.62185C23.6008 7.49673 24.0596 7.38913 24.5155 7.30483L24.1519 5.33817ZM22.6366 5.68948C22.4711 5.73163 22.3108 5.77861 22.1643 5.82376L22.7532 7.73508C22.882 7.69539 23.0082 7.65869 23.1302 7.62761L22.6366 5.68948ZM22.1748 5.82058C21.3653 6.06028 20.5693 6.34683 19.7904 6.67887L20.5747 8.51868C21.2832 8.21663 22.007 7.95611 22.7427 7.73826L22.1748 5.82058ZM19.789 6.67947C19.5576 6.77852 19.3326 6.88355 19.1094 6.99546L20.0061 8.7832C20.1954 8.68824 20.3839 8.60034 20.5761 8.51808L19.789 6.67947ZM19.1401 6.98073C18.6496 7.20619 18.1761 7.45502 17.7149 7.71799L18.7057 9.45533C19.127 9.21507 19.5481 8.99436 19.9754 8.79794L19.1401 6.98073ZM17.7451 7.70145C17.5288 7.81517 17.3246 7.9399 17.1502 8.04632L18.1922 9.75344C18.3739 9.64253 18.5248 9.55109 18.6755 9.47188L17.7451 7.70145ZM17.1552 8.04329C16.6191 8.36622 16.0952 8.71484 15.5868 9.08797L16.7701 10.7003C17.2292 10.3634 17.7026 10.0484 18.1872 9.75648L17.1552 8.04329ZM15.5786 9.09404C15.3384 9.27414 15.0884 9.46182 14.8402 9.65761L16.079 11.2278C16.3052 11.0494 16.5364 10.8756 16.7783 10.6943L15.5786 9.09404ZM14.8316 9.66455C14.5989 9.85231 14.3668 10.0462 14.1417 10.241L15.4506 11.7532C15.6579 11.5738 15.8724 11.3946 16.0877 11.2209L14.8316 9.66455ZM13.9554 10.4557C14.0232 10.3505 14.1109 10.2615 14.212 10.193L15.3338 11.8488C15.4533 11.7679 15.5569 11.6628 15.6369 11.5385L13.9554 10.4557ZM14.1652 10.2268C14.0763 10.2948 13.9427 10.4155 13.939 10.4187L15.2408 11.937C15.3632 11.832 15.3434 11.8435 15.3806 11.8151L14.1652 10.2268ZM13.9325 10.4243C13.6911 10.6349 13.4609 10.8541 13.2461 11.0622L14.6377 12.4987C14.8464 12.2965 15.0464 12.1066 15.2473 11.9314L13.9325 10.4243ZM14.5222 12.5949C16.0236 11.5251 17.7906 10.958 19.594 10.9604L19.5967 8.9604C17.3691 8.95745 15.1967 9.65856 13.3616 10.966L14.5222 12.5949ZM19.5953 10.9604H19.6009V8.9604H19.5953V10.9604ZM19.6009 10.9604C20.7894 10.9604 21.9676 11.2067 23.0684 11.6868L23.8678 9.85348C22.5169 9.26437 21.0667 8.9604 19.6009 8.9604V10.9604ZM23.0684 11.6868C24.1693 12.1668 25.1726 12.8719 26.0195 13.7642L27.4701 12.3873C26.4424 11.3045 25.2187 10.4425 23.8678 9.85348L23.0684 11.6868ZM26.0207 13.7654C27.5897 15.4129 28.5438 17.6114 28.6938 19.9554L30.6897 19.8277C30.5105 17.0276 29.3703 14.3825 27.469 12.3861L26.0207 13.7654ZM28.7725 20.2851C28.8456 20.4559 28.9302 20.6541 29.0293 20.8557L30.8242 19.9734C30.7519 19.8263 30.6872 19.6759 30.6111 19.4979L28.7725 20.2851ZM29.0318 20.8606C29.0455 20.8881 29.0581 20.9104 29.0587 20.9115C29.0635 20.9201 29.0477 20.8925 29.0318 20.8592C29.0128 20.8192 28.9869 20.7577 28.9673 20.6793C28.9473 20.5992 28.9384 20.5202 28.9384 20.4448H30.9384C30.9384 20.3632 30.9288 20.2789 30.9075 20.1939C30.8867 20.1106 30.8591 20.0446 30.8379 20.0001C30.8277 19.9787 30.8187 19.9617 30.8132 19.9514C30.8104 19.9462 30.808 19.9419 30.8064 19.9391C30.805 19.9365 30.8037 19.9342 30.8035 19.9339C30.8014 19.9301 30.8111 19.9471 30.8218 19.9685L29.0318 20.8606ZM29.0316 20.8665C29.1503 21.1217 29.2769 21.3953 29.4114 21.6637L31.1996 20.768C31.0808 20.5309 30.9675 20.2862 30.8451 20.0231L29.0316 20.8665ZM29.3946 21.6286C29.4161 21.676 29.4365 21.7134 29.4442 21.7275C29.4452 21.7294 29.4462 21.7311 29.4469 21.7323C29.4476 21.7337 29.4481 21.7346 29.4485 21.7353C29.4493 21.7369 29.4493 21.7369 29.4489 21.7362C29.4481 21.7346 29.445 21.7287 29.4408 21.7202L31.2387 20.8441C31.2288 20.8237 31.2199 20.8066 31.2132 20.7942C31.2099 20.7881 31.2071 20.7827 31.205 20.779C31.204 20.7771 31.203 20.7753 31.2023 20.774C31.2015 20.7726 31.2011 20.7717 31.2006 20.7709C31.1969 20.764 31.2059 20.7802 31.2164 20.8032L29.3946 21.6286ZM29.4359 21.7099C29.5497 21.9504 29.6761 22.1884 29.7863 22.3981L31.5567 21.4678C31.4391 21.244 31.3355 21.0485 31.2437 20.8544L29.4359 21.7099ZM29.7793 22.3846C29.8229 22.4707 29.8868 22.5975 29.9642 22.7229L31.6664 21.673C31.6398 21.6299 31.6119 21.5766 31.5637 21.4813L29.7793 22.3846ZM29.9267 22.6566C30.0596 22.9141 30.1968 23.1527 30.333 23.3828L32.0539 22.3637C31.9258 22.1474 31.8109 21.9467 31.7039 21.7393L29.9267 22.6566ZM30.3234 23.3661C30.4755 23.6346 30.6328 23.8952 30.7935 24.1516L32.4881 23.0894C32.3392 22.8519 32.1978 22.6174 32.0635 22.3803L30.3234 23.3661ZM30.7673 24.1074C30.8069 24.1784 30.8517 24.2469 30.9016 24.3121L32.4905 23.0974C32.4997 23.1095 32.5076 23.1216 32.5143 23.1337L30.7673 24.1074ZM30.844 24.2283C30.9892 24.4645 31.1431 24.7029 31.3101 24.9437L32.9534 23.8036C32.8108 23.5981 32.6771 23.3913 32.548 23.1812L30.844 24.2283ZM31.2873 24.9093C31.3284 24.974 31.4073 25.0867 31.4171 25.1012L33.0753 23.9831C33.0043 23.8779 33.0037 23.8813 32.9762 23.838L31.2873 24.9093ZM31.418 25.1027C31.541 25.2843 31.6691 25.4634 31.7883 25.63L33.4151 24.4666C33.2932 24.2962 33.1803 24.1382 33.0743 23.9817L31.418 25.1027ZM31.797 25.642C31.8572 25.7235 31.9645 25.8751 32.065 26.0018L33.6315 24.7584C33.5596 24.6678 33.5066 24.5904 33.4064 24.4546L31.797 25.642ZM32.0304 25.9555C32.1378 26.1081 32.2565 26.268 32.3854 26.4248L33.9304 25.1547C33.8415 25.0466 33.7534 24.9287 33.6661 24.8047L32.0304 25.9555ZM32.37 26.4056C32.5288 26.6087 32.7224 26.8446 32.8624 27.0206L34.4278 25.7758C34.247 25.5485 34.1077 25.3811 33.9458 25.174L32.37 26.4056ZM32.8882 27.0517C33.079 27.2728 33.2951 27.5286 33.5136 27.7686L34.9928 26.4225C34.7977 26.2081 34.6125 25.9885 34.402 25.7447L32.8882 27.0517ZM33.4988 27.7519C33.7008 27.9841 33.9089 28.2096 34.1296 28.4348L35.5578 27.0347C35.365 26.838 35.1838 26.6416 35.0076 26.4392L33.4988 27.7519ZM34.111 28.4153C34.1052 28.4091 34.1022 28.4055 34.1035 28.4071C34.1053 28.4091 34.1072 28.4114 34.1144 28.4199C34.1201 28.4266 34.1303 28.4386 34.1415 28.4515C34.1529 28.4646 34.1689 28.4826 34.1878 28.5025L35.6368 27.1239C35.6408 27.1281 35.6438 27.1315 35.6457 27.1335C35.6476 27.1356 35.6488 27.1369 35.6489 27.1371C35.6491 27.1373 35.6487 27.1368 35.6474 27.1353C35.646 27.1337 35.6443 27.1317 35.6416 27.1285C35.6373 27.1234 35.6278 27.1121 35.6181 27.1009C35.6079 27.0891 35.5935 27.0726 35.5764 27.0542L34.111 28.4153ZM34.2015 28.5166C34.3414 28.658 34.4951 28.814 34.6492 28.9622L36.0356 27.5207C35.9033 27.3935 35.7696 27.2578 35.6231 27.1098L34.2015 28.5166ZM34.6358 28.9491C35.414 29.7262 36.2399 30.4494 37.1081 31.1141L38.3239 29.5261C37.5256 28.9149 36.7656 28.2495 36.049 27.5339L34.6358 28.9491ZM37.1004 31.1081C37.4497 31.3811 37.8079 31.6421 38.1787 31.8914L39.2947 30.2318C38.9655 30.0104 38.6458 29.7775 38.3317 29.5321L37.1004 31.1081ZM38.1555 31.8754C38.3092 31.9851 38.4718 32.0967 38.6377 32.2034L39.7203 30.5218C39.5864 30.4356 39.4507 30.3427 39.3179 30.2478L38.1555 31.8754ZM39.179 32.3626H39.1851V30.3626H39.179V32.3626ZM38.3107 30.8773C38.1863 31.1015 38.1549 31.3581 38.21 31.5956L40.1582 31.1435C40.2122 31.3762 40.1815 31.628 40.0594 31.8479L38.3107 30.8773ZM38.2113 31.6009C38.2701 31.8481 38.4249 32.0802 38.6654 32.2276L39.7108 30.5226C39.9473 30.6676 40.0993 30.8956 40.157 31.1381L38.2113 31.6009ZM38.6654 32.2276C38.8996 32.3712 39.1826 32.4132 39.4488 32.3433L38.9406 30.4089C39.2024 30.3401 39.4806 30.3814 39.7108 30.5226L38.6654 32.2276ZM39.443 32.3448C39.7292 32.2714 39.9419 32.0855 40.0645 31.8746L38.3356 30.8693C38.4558 30.6625 38.6647 30.4796 38.9464 30.4074L39.443 32.3448Z" fill="#F3F3F5" mask="url(#path-14-inside-1_1505_511)"/>
<g style="mix-blend-mode:multiply" opacity="0.1">
<path d="M8.98333 20.5967V20.5969C8.98304 22.1574 9.29628 23.7009 9.90293 25.1264C9.26487 24.412 8.66819 23.6557 8.1167 22.8615C5.37576 18.9069 3.88084 14.1477 3.84298 9.25252C4.72492 7.90465 5.75677 6.67462 6.91552 5.58814C7.0064 10.8439 7.86161 15.0971 9.16127 18.5419C9.04328 19.2197 8.9837 19.9074 8.98333 20.5967Z" fill="black" stroke="#F3F3F5"/>
</g>
<g style="mix-blend-mode:multiply" opacity="0.16">
<path d="M15.3613 27.836C17.7694 30.0006 20.6181 31.5655 23.6939 32.4069C20.77 32.0647 17.9374 31.115 15.3613 29.6105V27.836Z" fill="black" stroke="#F3F3F5"/>
</g>
<g style="mix-blend-mode:multiply" opacity="0.1">
<path d="M37.4435 12.7167L37.5764 12.3989C37.545 12.3228 37.5132 12.2469 37.481 12.1712C37.2442 12.0472 37.0087 11.9274 36.7744 11.8115C36.8841 12.0491 36.9894 12.2892 37.0901 12.5315C37.2076 12.5922 37.3254 12.6539 37.4435 12.7167ZM37.4435 12.7167C37.5546 12.7632 37.6651 12.8178 37.7669 12.8777C37.7102 12.7301 37.652 12.5832 37.5921 12.4371L37.4435 12.7167ZM33.9181 7.18815L34.2405 6.91203L34.0746 7.38372C34.0341 7.36948 33.9932 7.35669 33.952 7.34537C33.9407 7.33184 33.9295 7.31835 33.9181 7.30491M33.9181 7.18815V7.04405V6.88652V6.81556L33.9161 6.88885L33.9109 7.07725L33.9076 7.19719M33.9181 7.18815V7.30491M33.9181 7.18815L33.9076 7.19719M33.9076 7.19719L33.9071 7.19757L33.8795 7.22124L33.8608 7.23731C33.8648 7.24204 33.8689 7.24678 33.8729 7.25152C33.8836 7.2641 33.8943 7.27671 33.905 7.28936M33.9076 7.19719L33.9071 7.21331L33.905 7.28936M33.905 7.28936L33.9043 7.31537C33.8893 7.31496 33.8744 7.31376 33.8598 7.31181C33.8253 7.30724 33.792 7.29853 33.7603 7.28615C33.7149 7.26837 33.673 7.24301 33.6365 7.21138L33.7151 7.27953C33.7295 7.28395 33.7439 7.2884 33.7582 7.29287L33.8309 7.31556H33.8589H33.9071H33.9181V7.30491M33.905 7.28936C33.9057 7.29019 33.9064 7.29102 33.9071 7.29185C33.9108 7.2962 33.9145 7.30055 33.9181 7.30491M16.4763 10.2982C16.7475 10.0992 17.0235 9.90772 17.3037 9.72392C16.9551 9.80478 16.6107 9.9041 16.272 10.0214M16.4763 10.2982C16.477 10.2977 16.4777 10.2972 16.4783 10.2967L16.272 10.0214M16.4763 10.2982C16.4756 10.2987 16.4749 10.2992 16.4743 10.2997L16.2704 10.022M16.4763 10.2982C16.3168 10.4178 16.1597 10.5357 16.0047 10.6547C15.9105 10.6924 15.8168 10.7316 15.7236 10.7723L15.4596 10.4452M16.272 10.0214L16.1784 9.8966L16.2704 10.022M16.272 10.0214C16.2715 10.0216 16.271 10.0218 16.2704 10.022M16.2704 10.022C16.0969 10.0821 15.9249 10.147 15.7545 10.2166C15.6557 10.292 15.5574 10.368 15.4596 10.4452M15.4596 10.4452L15.7192 10.7743C15.4737 10.8817 15.232 10.9995 14.9947 11.1274L14.7962 10.9995M15.4596 10.4452C15.2357 10.6259 15.0124 10.8124 14.7962 10.9995M14.7962 10.9995C14.79 11.0091 14.7821 11.0172 14.7729 11.0234M14.7962 10.9995L14.9349 11.1598C14.9214 11.1673 14.9079 11.1747 14.8944 11.1822L14.7729 11.0234M14.7729 11.0234C14.7311 11.0554 14.692 11.0902 14.652 11.1257C14.6316 11.1438 14.6111 11.1621 14.5899 11.1803C14.3687 11.3732 14.1537 11.5777 13.9419 11.7829C14.1854 11.6094 14.4354 11.4477 14.6909 11.2981L14.5899 11.1803L14.6921 11.2974C14.7558 11.2601 14.8199 11.2236 14.8843 11.1878L14.7729 11.0234ZM19.5953 9.94029L19.4818 9.47723C19.5013 9.47244 19.5209 9.46767 19.5405 9.46292L19.5956 9.46284M19.5953 9.94029V9.96284L19.5954 9.94042M19.5953 9.94029V9.46284H19.5956M19.5953 9.94029L19.5954 9.94042M19.5954 9.94042L19.6009 9.96284V9.46284H19.5956M19.5954 9.94042L19.596 9.46285C19.5959 9.46285 19.5958 9.46284 19.5956 9.46284M29.8761 6.53865C29.8779 6.5388 29.8797 6.53895 29.8815 6.5391C29.8835 6.53923 29.8856 6.53935 29.8876 6.53947L29.9174 6.04036L29.8761 6.53865ZM33.1255 7.11025C33.1318 7.112 33.1381 7.11375 33.1444 7.1155C33.1548 7.11766 33.1653 7.11966 33.1756 7.12141L33.2591 6.62845L33.1255 7.11025ZM33.0058 7.07929C33.0072 7.07969 33.0088 7.08015 33.0105 7.08065C33.0124 7.08115 33.0142 7.08164 33.0161 7.08214L33.1441 6.59881L33.0058 7.07929ZM31.0087 6.66883C31.0113 6.6693 31.014 6.66978 31.0166 6.67025C31.019 6.67061 31.0215 6.67098 31.0239 6.67135L31.0984 6.17692L31.0087 6.66883ZM24.8589 6.73869L24.8708 6.73657L24.899 6.725L24.9108 6.72012C24.9069 6.72174 24.9029 6.72326 24.8989 6.72467C24.8727 6.73393 24.845 6.73882 24.8171 6.73908L24.8589 6.73869ZM20.3786 8.06119C20.3787 8.06114 20.3788 8.06108 20.3789 8.06103C20.379 8.06098 20.3792 8.06093 20.3793 8.06087L20.1826 7.60136L20.3786 8.06119Z" fill="black" stroke="#F3F3F5"/>
</g>
<g style="mix-blend-mode:multiply" opacity="0.1">
<path d="M38.7005 31.6384V36.3288C34.9923 32.6562 32.0968 28.1661 30.2243 23.1763V22.1425C30.2294 22.1517 30.2344 22.1608 30.2395 22.17C30.2806 22.2511 30.3299 22.348 30.3874 22.4433C30.5056 22.6789 30.6344 22.9059 30.7729 23.1307C30.9173 23.3853 31.067 23.6336 31.2211 23.8796C31.2421 23.9161 31.265 23.9517 31.2898 23.986C31.4304 24.2192 31.5808 24.4437 31.7267 24.6556C31.7633 24.7114 31.8043 24.771 31.8437 24.8279C31.9619 25.0024 32.0855 25.1753 32.2049 25.3422L32.2048 25.3422L32.2102 25.3494C32.2305 25.3767 32.2533 25.4082 32.2779 25.442C32.334 25.519 32.3988 25.6082 32.4619 25.688C32.4763 25.7072 32.4907 25.7266 32.5053 25.7461C32.5923 25.8627 32.6828 25.984 32.7737 26.1004L32.7739 26.1007C32.9089 26.2735 33.0485 26.4461 33.1823 26.6117C33.2104 26.6465 33.2383 26.681 33.2658 26.7152L33.271 26.7217L33.2765 26.728C33.3158 26.7734 33.3554 26.8195 33.3953 26.8659C33.5551 27.0515 33.7202 27.2434 33.8887 27.43C34.0813 27.6518 34.2796 27.8667 34.4897 28.0808C34.4903 28.0815 34.491 28.0822 34.4918 28.0832L34.5057 28.0996L34.507 28.1011C34.5176 28.1137 34.5376 28.1374 34.5599 28.1609L34.5598 28.1609L34.5668 28.1679C34.7092 28.3118 34.8553 28.4588 35.0016 28.6009C35.7636 29.3616 36.5721 30.0695 37.422 30.7201L37.4227 30.7207C37.7551 30.9742 38.0993 31.228 38.4579 31.4667C38.5374 31.5262 38.6207 31.584 38.7005 31.6384Z" fill="black" stroke="#F3F3F5"/>
</g>
<g style="mix-blend-mode:screen" opacity="0.6">
<path d="M5.38007 20.1684L5.38871 20.1645C5.45868 20.3086 5.52997 20.4519 5.60257 20.5945C5.59308 20.5762 5.58358 20.5579 5.57407 20.5396C5.50978 20.416 5.44535 20.292 5.38007 20.1684ZM5.38007 20.1684L5.38848 20.164C5.38683 20.1606 5.38518 20.1572 5.38353 20.1538L5.67924 20.0104L5.67928 20.0104L5.38352 20.1538C5.25679 19.8924 5.13464 19.6288 5.01712 19.3633C5.13475 19.6326 5.25715 19.9005 5.38007 20.1684Z" fill="white" stroke="#F3F3F5"/>
</g>
<g style="mix-blend-mode:screen" opacity="0.6">
<mask id="path-21-inside-2_1505_511" fill="white">
<path d="M39.1892 31.3671H39.1953C39.1604 31.3311 39.0056 31.1742 38.748 30.9336C38.461 30.6622 38.0486 30.2706 37.5554 29.8063C37.3143 29.5657 37.0578 29.3123 36.7813 29.0409C36.5049 28.7696 36.2367 28.4686 35.9387 28.1797C35.3653 27.5649 34.7632 26.9083 34.1899 26.2272C33.6049 25.5462 33.0603 24.8326 32.55 24.1724C32.3089 23.8238 32.0524 23.5094 31.8312 23.1845C31.6101 22.8597 31.3955 22.5639 31.2004 22.2867C30.8106 21.726 30.4949 21.2558 30.2715 20.9124C30.1056 20.6596 29.9851 20.4905 29.9331 20.4185C31.9614 24.9213 35.1732 28.7204 39.1892 31.3671Z"/>
</mask>
<path d="M39.1892 31.3671H39.1953C39.1604 31.3311 39.0056 31.1742 38.748 30.9336C38.461 30.6622 38.0486 30.2706 37.5554 29.8063C37.3143 29.5657 37.0578 29.3123 36.7813 29.0409C36.5049 28.7696 36.2367 28.4686 35.9387 28.1797C35.3653 27.5649 34.7632 26.9083 34.1899 26.2272C33.6049 25.5462 33.0603 24.8326 32.55 24.1724C32.3089 23.8238 32.0524 23.5094 31.8312 23.1845C31.6101 22.8597 31.3955 22.5639 31.2004 22.2867C30.8106 21.726 30.4949 21.2558 30.2715 20.9124C30.1056 20.6596 29.9851 20.4905 29.9331 20.4185C31.9614 24.9213 35.1732 28.7204 39.1892 31.3671Z" fill="white"/>
<path d="M39.1892 31.3671L38.6389 32.2021L38.8893 32.3671H39.1892V31.3671ZM39.1953 31.3671V32.3671H41.553L39.9142 30.672L39.1953 31.3671ZM38.748 30.9336L38.0609 31.6602L38.0655 31.6645L38.748 30.9336ZM37.5554 29.8063L36.849 30.5141L36.8593 30.5244L36.8699 30.5344L37.5554 29.8063ZM35.9387 28.1797L35.2074 28.8618L35.2246 28.8803L35.2428 28.8978L35.9387 28.1797ZM34.1899 26.2272L34.9549 25.5832L34.9485 25.5757L34.1899 26.2272ZM32.55 24.1724L31.7274 24.7411L31.7426 24.763L31.7588 24.784L32.55 24.1724ZM31.2004 22.2867L30.3792 22.8575L30.3827 22.8624L31.2004 22.2867ZM30.2715 20.9124L31.1098 20.3672L31.1076 20.3638L30.2715 20.9124ZM29.9331 20.4185L30.7442 19.8335L29.0213 20.8292L29.9331 20.4185ZM39.1892 32.3671H39.1953V30.3671H39.1892V32.3671ZM39.9142 30.672C39.8665 30.6227 39.6994 30.4539 39.4305 30.2027L38.0655 31.6645C38.3118 31.8945 38.4544 32.0395 38.4763 32.0622L39.9142 30.672ZM39.4351 30.2071C39.15 29.9374 38.7351 29.5434 38.2408 29.0782L36.8699 30.5344C37.362 30.9977 37.7721 31.3871 38.0609 31.6602L39.4351 30.2071ZM38.2618 29.0984C38.0182 28.8553 37.7596 28.5999 37.4818 28.3273L36.0808 29.7546C36.356 30.0247 36.6105 30.276 36.849 30.5141L38.2618 29.0984ZM37.4818 28.3273C37.3575 28.2052 37.2335 28.075 37.091 27.926C36.9527 27.7812 36.7991 27.621 36.6346 27.4616L35.2428 28.8978C35.3764 29.0273 35.5058 29.162 35.6452 29.3078C35.7804 29.4493 35.9287 29.6053 36.0808 29.7546L37.4818 28.3273ZM36.67 27.4977C36.0995 26.8859 35.5114 26.2443 34.9549 25.5832L33.4249 26.8712C34.0151 27.5723 34.6312 28.2439 35.2074 28.8618L36.67 27.4977ZM34.9485 25.5757C34.3842 24.9187 33.8578 24.2292 33.3411 23.5608L31.7588 24.784C32.2628 25.4359 32.8256 26.1736 33.4313 26.8788L34.9485 25.5757ZM33.3725 23.6037C33.2393 23.411 33.1032 23.2299 32.9835 23.0701C32.8598 22.9048 32.7537 22.7626 32.6578 22.6218L31.0046 23.7473C31.1299 23.9313 31.2627 24.1087 31.3827 24.269C31.5069 24.4348 31.6196 24.5851 31.7274 24.7411L33.3725 23.6037ZM32.6578 22.6218C32.4311 22.2888 32.2025 21.973 32.018 21.711L30.3827 22.8624C30.5885 23.1548 30.789 23.4306 31.0046 23.7473L32.6578 22.6218ZM32.0215 21.716C31.6363 21.1618 31.3265 20.7004 31.1098 20.3672L29.4332 21.4576C29.6632 21.8113 29.9848 22.2901 30.3792 22.8575L32.0215 21.716ZM31.1076 20.3638C30.9318 20.0959 30.8026 19.9144 30.7442 19.8335L29.1221 21.0034C29.1676 21.0666 29.2794 21.2233 29.4354 21.461L31.1076 20.3638ZM29.0213 20.8292C31.1253 25.5 34.4602 29.4482 38.6389 32.2021L39.7395 30.5321C35.8862 27.9926 32.7975 24.3427 30.8449 20.0078L29.0213 20.8292Z" fill="#F3F3F5" mask="url(#path-21-inside-2_1505_511)"/>
</g>
<g style="mix-blend-mode:screen" opacity="0.6">
<path d="M28.1284 5.51622C27.9329 5.50971 27.7372 5.50674 27.5414 5.50732L28.1284 5.51622ZM28.1284 5.51622L28.1291 5.95942L28.1299 5.51627C29.0429 5.54676 29.9523 5.65448 30.8494 5.83855C31.6155 5.9887 32.369 6.20244 33.103 6.47776C33.5499 6.64489 33.8277 6.76912 33.9058 6.80489L28.1284 5.51622Z" fill="white" stroke="#F3F3F5"/>
</g>
<g style="mix-blend-mode:multiply" opacity="0.3">
<mask id="path-24-inside-3_1505_511" fill="white">
<path d="M39.2004 40.694V20.5969C39.1995 15.8002 37.6033 11.1546 34.6882 7.46387C35.0835 8.03045 35.4562 8.60284 35.8062 9.19964C36.1624 9.80556 36.4878 10.4309 36.7809 11.0731C37.033 11.6095 37.2509 12.1581 37.4516 12.7124C37.4919 12.8153 37.5262 12.9234 37.5666 13.032C37.8026 13.6954 38.0055 14.3712 38.1748 15.0566C38.3467 15.7395 38.4844 16.4314 38.5872 17.1294C38.679 17.8268 38.7531 18.5276 38.7824 19.2267C38.8117 19.9257 38.8056 20.6248 38.7995 21.3477L38.7768 23.4978L38.7481 27.7945V32.0912C38.7481 33.7609 38.7577 35.4301 38.7768 37.0986C38.7824 38.1598 38.7995 39.2203 38.8112 40.2744L38.4241 40.2686L37.6501 40.1785L36.8915 40.0187L36.1401 39.7962L35.4064 39.5009L34.7015 39.1395L34.0247 38.7176L33.3828 38.2353L32.7807 37.7047L32.2129 37.1236L31.6909 36.4966L31.221 35.822L30.8079 35.0985L30.4524 34.343L30.1544 33.5597L29.9194 32.7461C30.3595 34.9913 31.5232 37.0082 33.214 38.4562C34.9049 39.9041 37.0193 40.6945 39.2004 40.694Z"/>
</mask>
<path d="M39.2004 40.694V20.5969C39.1995 15.8002 37.6033 11.1546 34.6882 7.46387C35.0835 8.03045 35.4562 8.60284 35.8062 9.19964C36.1624 9.80556 36.4878 10.4309 36.7809 11.0731C37.033 11.6095 37.2509 12.1581 37.4516 12.7124C37.4919 12.8153 37.5262 12.9234 37.5666 13.032C37.8026 13.6954 38.0055 14.3712 38.1748 15.0566C38.3467 15.7395 38.4844 16.4314 38.5872 17.1294C38.679 17.8268 38.7531 18.5276 38.7824 19.2267C38.8117 19.9257 38.8056 20.6248 38.7995 21.3477L38.7768 23.4978L38.7481 27.7945V32.0912C38.7481 33.7609 38.7577 35.4301 38.7768 37.0986C38.7824 38.1598 38.7995 39.2203 38.8112 40.2744L38.4241 40.2686L37.6501 40.1785L36.8915 40.0187L36.1401 39.7962L35.4064 39.5009L34.7015 39.1395L34.0247 38.7176L33.3828 38.2353L32.7807 37.7047L32.2129 37.1236L31.6909 36.4966L31.221 35.822L30.8079 35.0985L30.4524 34.343L30.1544 33.5597L29.9194 32.7461C30.3595 34.9913 31.5232 37.0082 33.214 38.4562C34.9049 39.9041 37.0193 40.6945 39.2004 40.694Z" fill="black"/>
<path d="M39.2004 40.694L39.2007 41.694L40.2004 41.6937V40.694H39.2004ZM39.2004 20.5969L40.2004 20.5969L40.2004 20.5967L39.2004 20.5969ZM34.6882 7.46387L35.4729 6.84404L33.8681 8.03608L34.6882 7.46387ZM35.8062 9.19964L34.9435 9.70551L34.9441 9.70646L35.8062 9.19964ZM36.7809 11.0731L35.8711 11.4884L35.8759 11.4985L36.7809 11.0731ZM37.4516 12.7124L36.5113 13.0528L36.5158 13.0654L36.5207 13.0777L37.4516 12.7124ZM37.5666 13.032L38.5088 12.6968L38.504 12.6839L37.5666 13.032ZM38.1748 15.0566L37.2039 15.2963L37.205 15.3008L38.1748 15.0566ZM38.5872 17.1294L39.5787 16.9989L39.5777 16.9913L39.5766 16.9837L38.5872 17.1294ZM38.7995 21.3477L39.7995 21.3583L39.7995 21.3561L38.7995 21.3477ZM38.7768 23.4978L37.7769 23.4872L37.7768 23.4911L38.7768 23.4978ZM38.7481 27.7945L37.7481 27.7878V27.7945H38.7481ZM38.7768 37.0986L39.7768 37.0934L39.7768 37.0872L38.7768 37.0986ZM38.8112 40.2744L38.7961 41.2743L39.8224 41.2897L39.8111 40.2634L38.8112 40.2744ZM38.4241 40.2686L38.3085 41.2619L38.3586 41.2677L38.4091 41.2685L38.4241 40.2686ZM37.6501 40.1785L37.4439 41.157L37.4889 41.1665L37.5345 41.1718L37.6501 40.1785ZM36.8915 40.0187L36.6075 40.9775L36.646 40.989L36.6854 40.9972L36.8915 40.0187ZM36.1401 39.7962L35.7668 40.7239L35.8107 40.7415L35.8561 40.755L36.1401 39.7962ZM35.4064 39.5009L34.9501 40.3908L34.9908 40.4116L35.0331 40.4287L35.4064 39.5009ZM34.7015 39.1395L34.1724 39.9881L34.208 40.0102L34.2452 40.0293L34.7015 39.1395ZM34.0247 38.7176L33.424 39.5171L33.4588 39.5432L33.4957 39.5662L34.0247 38.7176ZM33.3828 38.2353L32.7217 38.9856L32.7509 39.0113L32.7821 39.0348L33.3828 38.2353ZM32.7807 37.7047L32.0655 38.4036L32.0916 38.4303L32.1196 38.455L32.7807 37.7047ZM32.2129 37.1236L31.4443 37.7634L31.4698 37.794L31.4976 37.8225L32.2129 37.1236ZM31.6909 36.4966L30.8704 37.0682L30.8949 37.1034L30.9224 37.1364L31.6909 36.4966ZM31.221 35.822L30.3525 36.3177L30.3748 36.3567L30.4004 36.3935L31.221 35.822ZM30.8079 35.0985L29.9031 35.5243L29.9199 35.56L29.9395 35.5942L30.8079 35.0985ZM30.4524 34.343L29.5178 34.6986L29.5314 34.7343L29.5476 34.7688L30.4524 34.343ZM30.1544 33.5597L29.1937 33.8372L29.2051 33.8768L29.2198 33.9153L30.1544 33.5597ZM29.9194 32.7461L30.8802 32.4687L28.9381 32.9385L29.9194 32.7461ZM33.214 38.4562L32.5635 39.2157L32.5636 39.2157L33.214 38.4562ZM40.2004 40.694V20.5969H38.2004V40.694H40.2004ZM40.2004 20.5967C40.1994 15.5799 38.5304 10.715 35.4729 6.84404L33.9035 8.0837C36.6763 11.5942 38.1995 16.0204 38.2004 20.5971L40.2004 20.5967ZM33.8681 8.03608C34.2513 8.58526 34.6092 9.13535 34.9435 9.70551L36.6688 8.69377C36.3032 8.07033 35.9158 7.47564 35.5083 6.89165L33.8681 8.03608ZM34.9441 9.70646C35.2828 10.2826 35.5923 10.8773 35.8712 11.4884L37.6906 10.6579C37.3832 9.98443 37.0419 9.32853 36.6682 8.69282L34.9441 9.70646ZM35.8759 11.4985C36.111 11.9987 36.3173 12.517 36.5113 13.0528L38.3919 12.372C38.1845 11.7992 37.9551 11.2203 37.6859 10.6477L35.8759 11.4985ZM36.5207 13.0777C36.567 13.1958 36.5562 13.1838 36.6292 13.3802L38.504 12.6839C38.4962 12.663 38.4169 12.4348 38.3825 12.3471L36.5207 13.0777ZM36.6244 13.3672C36.8492 13.9991 37.0426 14.643 37.2039 15.2963L39.1456 14.8169C38.9684 14.0993 38.7559 13.3917 38.5087 12.6969L36.6244 13.3672ZM37.205 15.3008C37.3688 15.9511 37.4999 16.6102 37.5979 17.2752L39.5766 16.9837C39.4688 16.2526 39.3246 15.5278 39.1445 14.8124L37.205 15.3008ZM37.5958 17.2599C37.6855 17.9418 37.7556 18.6104 37.7832 19.2685L39.7815 19.1848C39.7505 18.4447 39.6725 17.7117 39.5787 16.9989L37.5958 17.2599ZM37.7832 19.2685C37.8113 19.9382 37.8057 20.6118 37.7996 21.3393L39.7995 21.3561C39.8056 20.6378 39.812 19.9133 39.7815 19.1848L37.7832 19.2685ZM37.7996 21.3371L37.7769 23.4872L39.7768 23.5084L39.7995 21.3583L37.7996 21.3371ZM37.7768 23.4911L37.7481 27.7878L39.748 27.8012L39.7768 23.5045L37.7768 23.4911ZM37.7481 27.7945V32.0912H39.7481V27.7945H37.7481ZM37.7481 32.0912C37.7481 33.7648 37.7577 35.4378 37.7769 37.1101L39.7768 37.0872C39.7577 35.4225 39.7481 33.7571 39.7481 32.0912H37.7481ZM37.7768 37.1039C37.7824 38.1685 37.7997 39.2385 37.8112 40.2854L39.8111 40.2634C39.7994 39.202 39.7823 38.151 39.7768 37.0934L37.7768 37.1039ZM38.8262 39.2745L38.4391 39.2687L38.4091 41.2685L38.7961 41.2743L38.8262 39.2745ZM38.5397 39.2753L37.7657 39.1852L37.5345 41.1718L38.3085 41.2619L38.5397 39.2753ZM37.8562 39.2L37.0976 39.0402L36.6854 40.9972L37.4439 41.157L37.8562 39.2ZM37.1755 39.0599L36.4241 38.8373L35.8561 40.755L36.6075 40.9775L37.1755 39.0599ZM36.5134 38.8684L35.7797 38.5732L35.0331 40.4287L35.7668 40.7239L36.5134 38.8684ZM35.8627 38.6111L35.1577 38.2496L34.2452 40.0293L34.9501 40.3908L35.8627 38.6111ZM35.2305 38.2909L34.5537 37.869L33.4957 39.5662L34.1724 39.9881L35.2305 38.2909ZM34.6254 37.9181L33.9835 37.4358L32.7821 39.0348L33.424 39.5171L34.6254 37.9181ZM34.0439 37.485L33.4418 36.9545L32.1196 38.455L32.7217 38.9856L34.0439 37.485ZM33.4959 37.0059L32.9281 36.4248L31.4976 37.8225L32.0655 38.4036L33.4959 37.0059ZM32.9814 36.4839L32.4595 35.8569L30.9224 37.1364L31.4443 37.7634L32.9814 36.4839ZM32.5115 35.925L32.0415 35.2504L30.4004 36.3935L30.8704 37.0682L32.5115 35.925ZM32.0894 35.3262L31.6764 34.6027L29.9395 35.5942L30.3525 36.3177L32.0894 35.3262ZM31.7128 34.6727L31.3572 33.9172L29.5476 34.7688L29.9031 35.5243L31.7128 34.6727ZM31.3871 33.9875L31.0891 33.2041L29.2198 33.9153L29.5178 34.6986L31.3871 33.9875ZM31.1151 33.2822L30.8802 32.4687L28.9587 33.0236L29.1937 33.8372L31.1151 33.2822ZM28.9381 32.9385C29.4202 35.3979 30.6967 37.6169 32.5635 39.2157L33.8645 37.6966C32.3497 36.3994 31.2988 34.5847 30.9008 32.5538L28.9381 32.9385ZM32.5636 39.2157C34.4316 40.8154 36.7756 41.6946 39.2007 41.694L39.2001 39.694C37.2631 39.6945 35.3781 38.9929 33.8644 37.6966L32.5636 39.2157Z" fill="#F3F3F5" mask="url(#path-24-inside-3_1505_511)"/>
</g>
<g style="mix-blend-mode:multiply" opacity="0.3">
<mask id="path-26-inside-4_1505_511" fill="white">
<path d="M19.6038 41.2002H24.3449V34.1316C24.2708 35.3066 24.2304 36.488 24.179 37.663C24.1331 38.7415 24.0989 39.8131 24.0684 40.8928L20.4447 40.7963C19.7912 40.7841 19.1548 40.7905 18.524 40.7382C17.8898 40.6912 17.2583 40.6107 16.6319 40.497C16.0073 40.394 15.3889 40.2531 14.7797 40.0751C14.1612 39.9035 13.5521 39.6963 12.9551 39.4545C12.3646 39.2436 11.7852 38.9484 11.2063 38.6828C10.6501 38.3638 10.0712 38.0866 9.54378 37.7129C8.99088 37.3817 8.48277 36.9836 7.96083 36.5978C7.70318 36.4049 7.46322 36.1823 7.21552 35.9772C6.96301 35.773 6.72195 35.5537 6.49344 35.3205C6.26398 35.0916 6.02292 34.8684 5.79955 34.6336L5.13605 33.9044C4.91489 33.6719 4.72303 33.3982 4.51127 33.1448C4.31057 32.8863 4.09825 32.6387 3.91469 32.3615L3.34741 31.548L2.83101 30.6984C2.648 30.4154 2.49928 30.1173 2.34392 29.8267C2.18855 29.5362 2.01714 29.2421 1.885 28.9347C1.60855 28.3257 1.32879 27.7144 1.11095 27.0723C0.864352 26.458 0.698482 25.813 0.491699 25.1802C1.30276 28.891 3.07396 32.2939 5.60963 35.0131C8.14533 37.7323 11.3468 39.6619 14.8605 40.5888C16.4113 40.9986 18.0046 41.2039 19.6038 41.2002Z"/>
</mask>
<path d="M19.6038 41.2002H24.3449V34.1316C24.2708 35.3066 24.2304 36.488 24.179 37.663C24.1331 38.7415 24.0989 39.8131 24.0684 40.8928L20.4447 40.7963C19.7912 40.7841 19.1548 40.7905 18.524 40.7382C17.8898 40.6912 17.2583 40.6107 16.6319 40.497C16.0073 40.394 15.3889 40.2531 14.7797 40.0751C14.1612 39.9035 13.5521 39.6963 12.9551 39.4545C12.3646 39.2436 11.7852 38.9484 11.2063 38.6828C10.6501 38.3638 10.0712 38.0866 9.54378 37.7129C8.99088 37.3817 8.48277 36.9836 7.96083 36.5978C7.70318 36.4049 7.46322 36.1823 7.21552 35.9772C6.96301 35.773 6.72195 35.5537 6.49344 35.3205C6.26398 35.0916 6.02292 34.8684 5.79955 34.6336L5.13605 33.9044C4.91489 33.6719 4.72303 33.3982 4.51127 33.1448C4.31057 32.8863 4.09825 32.6387 3.91469 32.3615L3.34741 31.548L2.83101 30.6984C2.648 30.4154 2.49928 30.1173 2.34392 29.8267C2.18855 29.5362 2.01714 29.2421 1.885 28.9347C1.60855 28.3257 1.32879 27.7144 1.11095 27.0723C0.864352 26.458 0.698482 25.813 0.491699 25.1802C1.30276 28.891 3.07396 32.2939 5.60963 35.0131C8.14533 37.7323 11.3468 39.6619 14.8605 40.5888C16.4113 40.9986 18.0046 41.2039 19.6038 41.2002Z" fill="black"/>
<path d="M19.6038 41.2002V40.2002L19.6014 40.2002L19.6038 41.2002ZM24.3449 41.2002V42.2002H25.3449V41.2002H24.3449ZM24.3449 34.1316H25.3449L23.3469 34.0686L24.3449 34.1316ZM24.179 37.663L23.18 37.6192L23.1799 37.6205L24.179 37.663ZM24.0684 40.8928L24.0418 41.8924L25.0399 41.919L25.068 40.9209L24.0684 40.8928ZM20.4447 40.7963L20.4714 39.7966L20.4634 39.7965L20.4447 40.7963ZM18.524 40.7382L18.6066 39.7416L18.5979 39.7409L18.524 40.7382ZM16.6319 40.497L16.8105 39.5131L16.8026 39.5117L16.7947 39.5104L16.6319 40.497ZM14.7797 40.0751L15.0602 39.1152L15.0472 39.1116L14.7797 40.0751ZM12.9551 39.4545L13.3305 38.5276L13.3111 38.5198L13.2915 38.5128L12.9551 39.4545ZM11.2063 38.6828L10.7088 39.5502L10.7482 39.5728L10.7894 39.5917L11.2063 38.6828ZM9.54378 37.7129L10.1218 36.8969L10.0906 36.8748L10.0577 36.8551L9.54378 37.7129ZM7.96083 36.5978L7.36144 37.3983L7.36636 37.4019L7.96083 36.5978ZM7.21552 35.9772L7.85339 35.2069L7.84433 35.1996L7.21552 35.9772ZM6.49344 35.3205L7.20773 34.6206L7.19978 34.6126L6.49344 35.3205ZM5.79955 34.6336L5.05986 35.3066L5.06738 35.3149L5.07507 35.3229L5.79955 34.6336ZM5.13605 33.9044L5.87574 33.2314L5.86822 33.2231L5.86052 33.2151L5.13605 33.9044ZM4.51127 33.1448L3.72129 33.758L3.73238 33.7723L3.74398 33.7861L4.51127 33.1448ZM3.91469 32.3615L4.74844 31.8094L4.74182 31.7994L4.73496 31.7895L3.91469 32.3615ZM3.34741 31.548L2.49288 32.0674L2.50918 32.0942L2.52713 32.1199L3.34741 31.548ZM2.83101 30.6984L3.68554 30.179L3.67829 30.1671L3.67073 30.1554L2.83101 30.6984ZM1.885 28.9347L2.80371 28.5398L2.79974 28.5305L2.79557 28.5214L1.885 28.9347ZM1.11095 27.0723L2.05793 26.751L2.04914 26.7251L2.03895 26.6997L1.11095 27.0723ZM0.491699 25.1802L1.44224 24.8696L-0.485238 25.3937L0.491699 25.1802ZM5.60963 35.0131L4.87826 35.6951L4.87828 35.6951L5.60963 35.0131ZM14.8605 40.5888L15.1159 39.622L15.1155 39.6219L14.8605 40.5888ZM19.6038 42.2002H24.3449V40.2002H19.6038V42.2002ZM25.3449 41.2002V34.1316H23.3449V41.2002H25.3449ZM23.3469 34.0686C23.272 35.2564 23.2308 36.4571 23.18 37.6192L25.1781 37.7067C25.23 36.5189 25.2696 35.3567 25.3429 34.1945L23.3469 34.0686ZM23.1799 37.6205C23.1337 38.7057 23.0993 39.7826 23.0688 40.8646L25.068 40.9209C25.0984 39.8435 25.1325 38.7773 25.1781 37.7055L23.1799 37.6205ZM24.0951 39.8931L20.4714 39.7967L20.4181 41.7959L24.0418 41.8924L24.0951 39.8931ZM20.4634 39.7965C19.7713 39.7835 19.1949 39.7904 18.6066 39.7416L18.4413 41.7348C19.1147 41.7906 19.8112 41.7846 20.4261 41.7961L20.4634 39.7965ZM18.5979 39.7409C17.9988 39.6965 17.4023 39.6205 16.8105 39.5131L16.4534 41.481C17.1144 41.6009 17.7808 41.6858 18.45 41.7355L18.5979 39.7409ZM16.7947 39.5104C16.2099 39.4139 15.6308 39.282 15.0602 39.1153L14.4993 41.035C15.147 41.2243 15.8047 41.3741 16.4692 41.4837L16.7947 39.5104ZM15.0472 39.1116C14.4654 38.9501 13.8923 38.7552 13.3305 38.5276L12.5798 40.3814C13.2118 40.6374 13.857 40.8568 14.5123 41.0387L15.0472 39.1116ZM13.2915 38.5128C12.7557 38.3214 12.254 38.0632 11.6233 37.7739L10.7894 39.5917C11.3165 39.8335 11.9735 40.1658 12.6187 40.3962L13.2915 38.5128ZM11.7039 37.8154C11.0601 37.4461 10.5992 37.2351 10.1218 36.8969L8.96573 38.5289C9.54329 38.9381 10.2401 39.2814 10.7088 39.5502L11.7039 37.8154ZM10.0577 36.8551C9.55901 36.5563 9.10852 36.2027 8.5553 35.7937L7.36636 37.4019C7.85701 37.7646 8.42275 38.2071 9.02986 38.5708L10.0577 36.8551ZM8.56021 35.7973C8.32297 35.6197 8.1649 35.465 7.85335 35.207L6.5777 36.7473C6.76154 36.8996 7.08339 37.19 7.36145 37.3983L8.56021 35.7973ZM7.84433 35.1996C7.62199 35.0198 7.40943 34.8265 7.20768 34.6206L5.77919 36.0204C6.03447 36.2809 6.30404 36.5261 6.58672 36.7547L7.84433 35.1996ZM7.19978 34.6126C6.92899 34.3424 6.74094 34.1723 6.52402 33.9443L5.07507 35.3229C5.3049 35.5645 5.59897 35.8407 5.78709 36.0284L7.19978 34.6126ZM6.53923 33.9607L5.87574 33.2314L4.39637 34.5773L5.05986 35.3066L6.53923 33.9607ZM5.86052 33.2151C5.65826 33.0025 5.57449 32.8576 5.27856 32.5035L3.74398 33.7861C3.87157 33.9388 4.17152 34.3414 4.41158 34.5937L5.86052 33.2151ZM5.30125 32.5317C5.06086 32.222 4.90462 32.0452 4.74844 31.8094L3.08093 32.9136C3.29187 33.2322 3.56027 33.5505 3.72129 33.758L5.30125 32.5317ZM4.73496 31.7895L4.16769 30.976L2.52713 32.1199L3.09441 32.9335L4.73496 31.7895ZM4.20194 31.0286L3.68554 30.179L1.97648 31.2178L2.49288 32.0674L4.20194 31.0286ZM3.67073 30.1554C3.51737 29.9182 3.399 29.6792 3.22576 29.3552L1.46207 30.2983C1.59957 30.5554 1.77863 30.9125 1.99129 31.2414L3.67073 30.1554ZM3.22576 29.3552C3.04679 29.0205 2.91349 28.7952 2.80371 28.5398L0.966284 29.3296C1.12079 29.6891 1.33031 30.0518 1.46207 30.2983L3.22576 29.3552ZM2.79557 28.5214C2.51457 27.9023 2.25692 27.3375 2.05793 26.751L0.163957 27.3935C0.400658 28.0912 0.702529 28.7491 0.974424 29.3481L2.79557 28.5214ZM2.03895 26.6997C1.80688 26.1216 1.67725 25.5888 1.44224 24.8696L-0.458842 25.4908C-0.280286 26.0372 -0.0781774 26.7944 0.182938 27.4448L2.03895 26.6997ZM-0.485238 25.3937C0.363286 29.2759 2.21743 32.8416 4.87826 35.6951L6.34099 34.3311C3.93049 31.7461 2.24224 28.506 1.46864 24.9666L-0.485238 25.3937ZM4.87828 35.6951C7.53953 38.5489 10.9049 40.5795 14.6054 41.5558L15.1155 39.6219C11.7888 38.7443 8.75114 36.9157 6.34098 34.3311L4.87828 35.6951ZM14.605 41.5557C16.2397 41.9876 17.9197 42.2041 19.6061 42.2002L19.6014 40.2002C18.0896 40.2037 16.5829 40.0096 15.1159 39.622L14.605 41.5557Z" fill="#F3F3F5" mask="url(#path-26-inside-4_1505_511)"/>
</g>
</g>
<defs>
<filter id="filter0_i_1505_511" x="15.1211" y="21.208" width="9.03027" height="5.65674" filterUnits="userSpaceOnUse" color-interpolation-filters="sRGB">
<feFlood flood-opacity="0" result="BackgroundImageFix"/>
<feBlend mode="normal" in="SourceGraphic" in2="BackgroundImageFix" result="shape"/>
<feColorMatrix in="SourceAlpha" type="matrix" values="0 0 0 0 0 0 0 0 0 0 0 0 0 0 0 0 0 0 127 0" result="hardAlpha"/>
<feOffset dy="2"/>
<feGaussianBlur stdDeviation="0.5"/>
<feComposite in2="hardAlpha" operator="arithmetic" k2="-1" k3="1"/>
<feColorMatrix type="matrix" values="0 0 0 0 0 0 0 0 0 0 0 0 0 0 0 0 0 0 0.1 0"/>
<feBlend mode="normal" in2="shape" result="effect1_innerShadow_1505_511"/>
</filter>
</defs>
</svg>
